<svg width="1222" height="900" viewBox="0 0 1222 900" fill="none" xmlns="http://www.w3.org/2000/svg">
<g opacity="0.6">
<circle cx="364.233" cy="376.951" r="0.797546" transform="rotate(90 364.233 376.951)" fill="#D9D9D9"/>
<circle cx="236.955" cy="540.138" r="1.19697" transform="rotate(90 236.955 540.138)" fill="white"/>
<g filter="url(#filter0_f_3698_11465)">
<circle cx="236.955" cy="540.138" r="1.19697" transform="rotate(90 236.955 540.138)" fill="white"/>
</g>
<ellipse cx="347.475" cy="613.95" rx="0.79798" ry="2.39394" transform="rotate(90 347.475 613.95)" fill="white"/>
<circle cx="376.602" cy="670.21" r="0.398496" transform="rotate(90 376.602 670.21)" fill="white"/>
<circle cx="305.581" cy="655.848" r="0.398496" transform="rotate(90 305.581 655.848)" fill="white"/>
<circle cx="256.905" cy="675.791" r="0.398496" transform="rotate(90 256.905 675.791)" fill="white"/>
<circle opacity="0.5" cx="205.834" cy="667.815" r="0.398496" transform="rotate(90 205.834 667.815)" fill="white"/>
<ellipse cx="92.5598" cy="544.124" rx="0.398496" ry="0.358646" transform="rotate(90 92.5598 544.124)" fill="#36F9DE"/>
<ellipse cx="99.7419" cy="588.011" rx="0.398496" ry="0.358646" transform="rotate(90 99.7419 588.011)" fill="#36F9DE"/>
<circle cx="246.53" cy="644.674" r="1.19697" transform="rotate(90 246.53 644.674)" fill="white"/>
<circle cx="217.005" cy="150.721" r="1.19697" transform="rotate(90 217.005 150.721)" fill="white"/>
<circle cx="132.419" cy="74.111" r="1.19697" transform="rotate(90 132.419 74.111)" fill="white"/>
<ellipse opacity="0.3" cx="190.123" cy="565.668" rx="1.99495" ry="1.74558" transform="rotate(90 190.123 565.668)" fill="white"/>
<circle cx="243.339" cy="609.56" r="0.398496" transform="rotate(90 243.339 609.56)" fill="#36F9DE"/>
<circle cx="156.358" cy="647.859" r="0.398496" transform="rotate(90 156.358 647.859)" fill="#36F9DE"/>
<circle cx="311.964" cy="128.38" r="1.19697" transform="rotate(90 311.964 128.38)" fill="#D9D9D9"/>
<circle cx="217.802" cy="105.234" r="1.99495" transform="rotate(90 217.802 105.234)" fill="white"/>
<circle cx="229.772" cy="814.641" r="1.19697" transform="rotate(90 229.772 814.641)" fill="white"/>
<circle cx="200.248" cy="320.692" r="1.19697" transform="rotate(90 200.248 320.692)" fill="white"/>
<circle cx="115.661" cy="244.087" r="1.19697" transform="rotate(90 115.661 244.087)" fill="white"/>
<ellipse opacity="0.3" cx="173.366" cy="735.643" rx="1.99495" ry="1.74558" transform="rotate(90 173.366 735.643)" fill="white"/>
<circle cx="226.581" cy="779.526" r="0.398496" transform="rotate(90 226.581 779.526)" fill="#36F9DE"/>
<circle cx="139.601" cy="817.835" r="0.398496" transform="rotate(90 139.601 817.835)" fill="#36F9DE"/>
<circle cx="295.207" cy="298.346" r="1.19697" transform="rotate(90 295.207 298.346)" fill="#D9D9D9"/>
<circle cx="201.045" cy="275.206" r="1.99495" transform="rotate(90 201.045 275.206)" fill="white"/>
<circle cx="62.9948" cy="222.539" r="1.99495" transform="rotate(90 62.9948 222.539)" fill="#D9DBDD"/>
<circle cx="112.869" cy="129.578" r="0.797546" transform="rotate(90 112.869 129.578)" fill="white"/>
<circle cx="314.758" cy="192.618" r="0.797546" transform="rotate(90 314.758 192.618)" fill="#D9D9D9"/>
<circle cx="211.419" cy="169.872" r="1.19697" transform="rotate(90 211.419 169.872)" fill="white"/>
<circle cx="174.314" cy="41.7975" r="0.797546" transform="rotate(90 174.314 41.7975)" fill="white"/>
<circle cx="308.374" cy="56.1589" r="0.797546" transform="rotate(90 308.374 56.1589)" fill="white"/>
<circle cx="365.031" cy="90.4724" r="0.797546" transform="rotate(90 365.031 90.4724)" fill="white"/>
<circle cx="341.091" cy="187.029" r="0.797546" transform="rotate(90 341.091 187.029)" fill="white"/>
<circle cx="367.425" cy="281.191" r="0.797546" transform="rotate(90 367.425 281.191)" fill="white"/>
<circle cx="375.405" cy="185.435" r="0.797546" transform="rotate(90 375.405 185.435)" fill="white"/>
<circle cx="369.021" cy="515.8" r="0.797546" transform="rotate(90 369.021 515.8)" fill="white"/>
<circle cx="290.021" cy="592.406" r="0.797546" transform="rotate(90 290.021 592.406)" fill="white"/>
<circle cx="260.894" cy="156.31" r="1.19697" transform="rotate(90 260.894 156.31)" fill="white"/>
</g>
<g opacity="0.4">
<circle cx="1145.19" cy="458.496" r="4.34092" transform="rotate(90 1145.19 458.496)" fill="#D9D9D9"/>
<circle cx="994.703" cy="652.391" r="1.44697" transform="rotate(90 994.703 652.391)" fill="white"/>
<g filter="url(#filter1_f_3698_11465)">
<circle cx="994.703" cy="652.391" r="1.44697" transform="rotate(90 994.703 652.391)" fill="white"/>
</g>
<circle cx="1128.31" cy="743.549" r="2.89395" transform="rotate(90 1128.31 743.549)" fill="white"/>
<circle cx="1163.52" cy="809.629" r="0.481727" transform="rotate(90 1163.52 809.629)" fill="white"/>
<circle cx="1077.66" cy="792.268" r="0.481727" transform="rotate(90 1077.66 792.268)" fill="white"/>
<circle cx="1018.82" cy="816.376" r="0.481727" transform="rotate(90 1018.82 816.376)" fill="white"/>
<circle opacity="0.5" cx="957.083" cy="806.735" r="0.481727" transform="rotate(90 957.083 806.735)" fill="white"/>
<ellipse cx="820.152" cy="657.209" rx="0.481727" ry="0.433555" transform="rotate(90 820.152 657.209)" fill="#36F9DE"/>
<ellipse cx="828.833" cy="710.262" rx="0.481727" ry="0.433555" transform="rotate(90 828.833 710.262)" fill="#36F9DE"/>
<circle cx="1006.28" cy="778.761" r="1.44697" transform="rotate(90 1006.28 778.761)" fill="white"/>
<circle cx="970.587" cy="181.637" r="1.44697" transform="rotate(90 970.587 181.637)" fill="white"/>
<circle cx="868.335" cy="89.0271" r="1.44697" transform="rotate(90 868.335 89.0271)" fill="white"/>
<ellipse cx="936.825" cy="684.699" rx="3.8586" ry="3.37628" transform="rotate(90 936.825 684.699)" fill="white"/>
<circle cx="1002.42" cy="736.311" r="0.481727" transform="rotate(90 1002.42 736.311)" fill="#36F9DE"/>
<circle cx="897.274" cy="782.612" r="0.481727" transform="rotate(90 897.274 782.612)" fill="#36F9DE"/>
<circle cx="1085.38" cy="154.631" r="1.44697" transform="rotate(90 1085.38 154.631)" fill="#36F9DE"/>
<circle cx="971.554" cy="126.651" r="2.41162" transform="rotate(90 971.554 126.651)" fill="white"/>
<circle cx="784.412" cy="268.457" r="2.41162" transform="rotate(90 784.412 268.457)" fill="#4DD2EF"/>
<circle cx="844.702" cy="156.078" r="0.964125" transform="rotate(90 844.702 156.078)" fill="white"/>
<circle cx="1085.86" cy="235.181" r="3.8586" transform="rotate(90 1085.86 235.181)" fill="#D9D9D9"/>
<circle cx="963.836" cy="204.788" r="1.44697" transform="rotate(90 963.836 204.788)" fill="white"/>
<circle cx="917.049" cy="51.894" r="2.89395" transform="rotate(90 917.049 51.894)" fill="white"/>
<circle cx="1081.04" cy="67.3255" r="0.964125" transform="rotate(90 1081.04 67.3255)" fill="white"/>
<circle cx="1149.53" cy="108.805" r="0.964125" transform="rotate(90 1149.53 108.805)" fill="white"/>
<circle cx="1120.59" cy="225.529" r="0.964125" transform="rotate(90 1120.59 225.529)" fill="white"/>
<circle cx="1152.43" cy="339.359" r="0.964125" transform="rotate(90 1152.43 339.359)" fill="white"/>
<circle cx="1162.07" cy="223.603" r="0.964125" transform="rotate(90 1162.07 223.603)" fill="white"/>
<circle cx="1154.36" cy="622.969" r="0.964125" transform="rotate(90 1154.36 622.969)" fill="white"/>
<circle cx="1058.86" cy="715.574" r="0.964125" transform="rotate(90 1058.86 715.574)" fill="white"/>
<circle cx="1023.64" cy="188.395" r="1.44697" transform="rotate(90 1023.64 188.395)" fill="white"/>
</g>
<defs>
<filter id="filter0_f_3698_11465" x="232.769" y="535.952" width="8.37228" height="8.3718" filterUnits="userSpaceOnUse" color-interpolation-filters="sRGB">
<feFlood flood-opacity="0" result="BackgroundImageFix"/>
<feBlend mode="normal" in="SourceGraphic" in2="BackgroundImageFix" result="shape"/>
<feGaussianBlur stdDeviation="1.49456" result="effect1_foregroundBlur_3698_11465"/>
</filter>
<filter id="filter1_f_3698_11465" x="990.267" y="647.955" width="8.87228" height="8.8718" filterUnits="userSpaceOnUse" color-interpolation-filters="sRGB">
<feFlood flood-opacity="0" result="BackgroundImageFix"/>
<feBlend mode="normal" in="SourceGraphic" in2="BackgroundImageFix" result="shape"/>
<feGaussianBlur stdDeviation="1.49456" result="effect1_foregroundBlur_3698_11465"/>
</filter>
</defs>
</svg>
